<svg width="131" height="162" viewBox="0 0 131 162" fill="none" xmlns="http://www.w3.org/2000/svg">
<path d="M109.661 146.449C112.075 143.938 117.231 139.954 121.401 137.38C121.92 137.062 122.598 137.22 122.919 137.736C123.239 138.253 123.08 138.93 122.562 139.25C118.525 141.742 113.558 145.571 111.252 147.969C105.016 154.461 104.603 156.851 104.715 157.577C104.738 157.727 104.793 157.847 104.945 157.959C105.017 158 105.101 158.06 105.164 158.085C107.462 159.021 110.16 158.47 113.178 156.446C121.407 150.929 128.796 136.766 128.796 132.418C128.796 131.606 128.475 131.122 127.722 130.797C123.926 129.163 113.186 132.982 109.308 136.618C108.863 137.033 108.167 137.011 107.749 136.57C107.332 136.127 107.353 135.431 107.797 135.016C108.768 134.106 110.185 133.158 111.834 132.268L108.802 122.623C104.907 130.551 98.5422 136.962 90.4926 141.131C94.1578 146.042 99.4249 152.698 102.715 156.044C103.384 153.744 105.645 150.629 109.661 146.449Z" fill="#97F0E5"/>
<path d="M78.1611 24.7005C77.5455 24.7508 77.0151 24.3184 76.9554 23.7148C75.9968 14.0391 71.7332 7.33574 64.2836 3.78955C59.334 1.48675 53.6117 1.69315 48.5926 4.36435C42.5894 7.55815 38.3254 13.8351 37.1857 21.1553C36.5706 25.1085 36.0358 29.6555 35.4168 34.9208C34.513 42.6082 33.3942 52.1151 31.4881 64.526C36.8802 64.0581 46.2281 64.5822 52.8581 69.1523C53.3587 69.4973 53.4844 70.1819 53.138 70.6816C52.7916 71.1808 52.104 71.3052 51.6044 70.9607C44.9387 66.3663 35.1588 66.2126 30.4309 66.8485C28.2069 67.1471 16.6326 69.1786 7.1586 79.8786C2.437 85.1932 0.9847 91.9255 3.2723 97.8867C4.6635 101.51 7.3 104.053 9.9889 104.361C12.2227 104.625 14.3518 103.36 16.1423 100.722C16.3542 100.409 16.7897 100.179 17.166 100.183C18.0042 100.209 18.3159 100.861 18.999 102.289C19.779 103.922 21.2318 106.96 22.8931 107.514C23.3379 107.662 23.7724 107.613 24.2623 107.358C25.1118 106.908 25.3902 105.167 25.7122 103.151C26.2456 99.8102 26.9766 95.2348 31.0905 91.8902C32.7166 90.6166 34.8006 90.2839 37.5683 89.952C38.1672 89.8719 38.7217 90.3081 38.7946 90.9113C38.867 91.5145 38.4359 92.062 37.8316 92.1342C35.4226 92.4231 33.6282 92.6983 32.4685 93.6069C29.0216 96.409 28.3938 100.339 27.8893 103.497C27.4748 106.093 27.1162 108.336 25.2895 109.304C25.147 109.378 25.0045 109.441 24.862 109.499C24.1268 114.664 23.729 119.401 23.41 123.235C23.0063 128.087 22.8223 130.092 22.3217 130.965C18.5484 137.372 19.2893 141.461 24.8731 145.088C28.3973 147.433 34.3486 152.276 38.6934 155.813C39.6138 156.562 40.4623 157.253 41.1993 157.847C42.8733 159.199 44.9466 159.802 47.9218 159.802H63.1548C63.1798 159.775 63.5683 159.412 63.7929 158.4C64.3527 155.882 63.4734 151.55 59.3277 146.944C57.2847 144.688 54.5092 142.812 52.6727 141.572C52.0813 141.173 51.5981 140.844 51.2741 140.597C51.2724 140.595 51.2705 140.594 51.2688 140.593C51.2686 140.593 51.2691 140.593 51.2688 140.593C51.2659 140.591 51.2613 140.587 51.2585 140.585C51.2552 140.583 51.2539 140.579 51.2505 140.576C51.1813 140.522 51.1334 140.45 51.0797 140.382C51.0467 140.34 51.0013 140.306 50.9752 140.261C50.9732 140.257 50.9711 140.254 50.9691 140.251C50.9361 140.192 50.9269 140.124 50.9051 140.06C50.8828 139.993 50.8486 139.931 50.8392 139.862C50.8388 139.859 50.8378 139.856 50.8373 139.852C50.8323 139.813 50.8456 139.772 50.8448 139.732C50.8444 139.705 50.8483 139.68 50.8497 139.653C50.8536 139.583 50.8452 139.512 50.863 139.442C50.8647 139.436 50.8676 139.43 50.8694 139.423C50.8704 139.419 50.8692 139.416 50.8703 139.412L53.476 130.318C53.6434 129.734 54.2511 129.394 54.8388 129.563C55.424 129.73 55.7632 130.338 55.5958 130.921L53.2079 139.255C58.0091 142.437 68.8697 145.481 79.7298 142.844C94.6423 139.171 105.781 128.561 109.522 114.462C111.812 105.834 111.025 97.0003 107.504 89.0799C107.478 89.0357 107.446 88.9974 107.427 88.9487C107.416 88.922 107.421 88.8945 107.412 88.8675C105.264 84.1123 102.128 79.6914 98.0716 75.8507C94.6639 72.549 91.6094 70.3746 91.5791 70.3531C91.0829 70.0014 90.9665 69.3152 91.3188 68.8203C91.6701 68.324 92.3591 68.2089 92.8553 68.5602C92.9845 68.6519 96.0712 70.8475 99.5993 74.2647C103.622 78.0742 106.767 82.4355 109.012 87.1185C113.339 85.2999 117.092 82.9472 120.441 79.9331C126.444 74.639 129.064 67.755 127.458 61.5113C126.458 57.6245 123.889 54.6805 120.914 54.0115C118.373 53.4386 115.742 54.5956 113.508 57.2683C113.196 57.6206 112.78 57.7734 112.351 57.6977C111.511 57.5494 111.209 56.7925 110.549 55.1333C109.81 53.2775 108.573 50.171 106.938 49.503C106.484 49.3176 106.025 49.3415 105.489 49.5757C104.846 49.826 104.806 50.9406 104.79 52.7403C104.758 56.388 104.709 61.9002 97.2936 65.3556C95.6475 66.233 94.5494 66.6585 91.816 66.6585C91.2073 66.6585 90.714 66.1661 90.714 65.5591C90.714 65.0621 91.051 64.6583 91.5049 64.5223C90.9694 60.2637 89.5113 51.3677 89.5113 51.3677C89.5113 51.3677 91.6159 47.9698 91.5156 44.8717C91.3152 37.776 88.91 28.7815 80.5921 24.5841C80.1505 24.2538 79.6465 23.5965 79.1001 23.1002C79.1148 23.2342 79.1361 23.363 79.1495 23.4979C79.2092 24.1025 78.7669 24.641 78.1611 24.7005Z" fill="#97F0E5"/>
<path d="M128.598 128.78C125.311 127.363 118.921 128.934 113.833 131.274L110.147 119.551C110.725 118.081 111.241 116.578 111.654 115.025C113.986 106.235 113.285 97.2521 109.91 89.1277C114.45 87.214 118.393 84.7386 121.91 81.5734C128.538 75.7283 131.41 68.0241 129.594 60.9649C128.371 56.2149 125.231 52.7287 121.398 51.8669C118.386 51.1871 115.364 52.2324 112.788 54.7963C112.723 54.6367 112.659 54.4742 112.598 54.322C111.673 52.0002 110.276 48.4916 107.774 47.4688C106.759 47.053 105.691 47.0848 104.645 47.5449C102.624 48.3286 102.605 50.5616 102.585 52.7209C102.555 56.1846 102.517 60.495 96.3079 63.3897C94.9133 64.1319 94.1959 64.4598 91.8158 64.4598C91.7055 64.4598 91.6053 64.4923 91.5048 64.5224C91.0508 64.6584 90.7139 65.0622 90.7139 65.5592C90.7139 66.1663 91.2071 66.6586 91.8159 66.6586C94.5493 66.6586 95.6474 66.2331 97.2935 65.3557C104.709 61.9003 104.758 56.388 104.79 52.7404C104.806 50.9407 104.846 49.8262 105.489 49.5758C106.025 49.3416 106.484 49.3177 106.938 49.5031C108.573 50.1711 109.81 53.2776 110.549 55.1334C111.209 56.7925 111.511 57.5494 112.351 57.6978C112.78 57.7734 113.196 57.6207 113.508 57.2684C115.741 54.5957 118.373 53.4387 120.914 54.0116C123.889 54.6806 126.458 57.6246 127.458 61.5114C129.064 67.7551 126.444 74.6391 120.441 79.9332C117.092 82.9473 113.339 85.3 109.012 87.1186C106.767 82.4356 103.622 78.0742 99.5992 74.2648C96.0711 70.8475 92.9844 68.652 92.8552 68.5603C92.359 68.209 91.67 68.3241 91.3187 68.8204C90.9664 69.3152 91.0828 70.0013 91.579 70.3532C91.6093 70.3747 94.6638 72.5491 98.0715 75.8508C102.128 79.6915 105.264 84.1124 107.412 88.8676C107.42 88.8946 107.416 88.9221 107.427 88.9488C107.446 88.9975 107.478 89.0357 107.504 89.08C111.025 97.0003 111.812 105.834 109.522 114.463C105.78 128.561 94.6422 139.171 79.7297 142.844C68.8696 145.482 58.009 142.437 53.2078 139.255L55.5957 130.921C55.7631 130.338 55.4239 129.73 54.8387 129.563C54.251 129.394 53.6433 129.735 53.4759 130.318L50.8702 139.412C50.8692 139.416 50.8703 139.419 50.8693 139.423C50.8675 139.43 50.8646 139.436 50.8629 139.442C50.8452 139.512 50.8535 139.583 50.8496 139.654C50.8482 139.68 50.8443 139.706 50.8447 139.732C50.8454 139.772 50.8322 139.813 50.8372 139.852C50.8377 139.856 50.8387 139.859 50.8391 139.862C50.8485 139.931 50.8827 139.993 50.905 140.06C50.9268 140.124 50.936 140.192 50.969 140.251C50.971 140.254 50.9731 140.257 50.9751 140.261C51.0012 140.306 51.0466 140.34 51.0796 140.382C51.1333 140.45 51.1811 140.522 51.2504 140.576C51.2537 140.579 51.255 140.583 51.2584 140.585C51.2613 140.587 51.2652 140.59 51.2681 140.592C51.2678 140.592 51.2683 140.593 51.2681 140.592C51.2698 140.594 51.2723 140.596 51.274 140.597C51.598 140.844 52.0813 141.173 52.6726 141.572C54.5091 142.812 57.2846 144.688 59.3276 146.944C63.4732 151.55 64.3526 155.883 63.7928 158.401C63.5682 159.412 63.1797 159.775 63.1547 159.802H47.9217C44.9465 159.802 42.8732 159.199 41.1992 157.847C40.4623 157.253 39.6138 156.562 38.6933 155.813C34.3485 152.276 28.3972 147.433 24.873 145.088C19.2892 141.461 18.5483 137.372 22.3216 130.965C22.8222 130.092 23.0062 128.087 23.4099 123.235C23.7289 119.401 24.1268 114.664 24.8619 109.499C25.0044 109.441 25.1469 109.379 25.2894 109.304C27.1161 108.336 27.4748 106.094 27.8892 103.497C28.3937 100.339 29.0215 96.409 32.4684 93.607C33.6281 92.6984 35.4225 92.4232 37.8315 92.1343C38.4358 92.0621 38.8669 91.5146 38.7945 90.9114C38.7216 90.3083 38.1672 89.872 37.5682 89.952C34.8005 90.2838 32.7164 90.6166 31.0904 91.8903C26.9766 95.2349 26.2455 99.8103 25.7121 103.151C25.3901 105.167 25.1117 106.909 24.2622 107.358C23.7724 107.613 23.3378 107.662 22.893 107.514C21.2317 106.96 19.7789 103.922 18.9989 102.289C18.3158 100.862 18.0041 100.209 17.1659 100.183C16.7896 100.179 16.3541 100.409 16.1422 100.722C14.3517 103.36 12.2226 104.625 9.98882 104.361C7.29992 104.053 4.66341 101.511 3.27221 97.8867C0.984614 91.9255 2.43691 85.1933 7.15851 79.8787C16.6325 69.1787 28.2068 67.1472 30.4308 66.8486C35.1588 66.2128 44.9386 66.3665 51.6043 70.9608C52.1039 71.3053 52.7914 71.1809 53.1379 70.6817C53.4843 70.182 53.3586 69.4974 52.858 69.1524C46.2279 64.5823 36.8801 64.0582 31.488 64.5261C33.3941 52.1152 34.5129 42.6083 35.4167 34.9209C36.0357 29.6556 36.5706 25.1085 37.1856 21.1554C38.3253 13.8352 42.5893 7.55823 48.5925 4.36443C53.6116 1.69323 59.3339 1.48683 64.2835 3.78963C71.7331 7.33583 75.9967 14.0392 76.9553 23.7149C77.015 24.3185 77.5454 24.7509 78.161 24.7006C78.7668 24.6411 79.2092 24.1028 79.1495 23.4982C79.1361 23.3633 79.1148 23.2344 79.1001 23.1005C77.9905 12.9627 73.2062 5.60053 65.2245 1.80153C59.6309 -0.801872 53.1913 -0.574472 47.5546 2.42423C40.9432 5.94213 36.2524 12.8182 35.0071 20.8177C34.3856 24.8118 33.8488 29.3779 33.2269 34.6647C32.3104 42.4629 31.1716 52.1364 29.2131 64.8144C25.4785 65.4743 14.5543 68.204 5.50711 78.4221C0.231114 84.3609 -1.37389 91.9314 1.21321 98.6724C2.92051 103.121 6.18631 106.138 9.73641 106.546C12.3666 106.848 14.8837 105.692 16.9991 103.216C17.002 103.222 17.0055 103.229 17.0084 103.236C17.9944 105.298 19.6444 108.749 22.1939 109.599C22.3313 109.645 22.4695 109.673 22.6074 109.702C21.9071 114.757 21.5073 119.513 21.2127 123.053C20.9568 126.127 20.692 129.306 20.4136 129.863C17.6797 134.506 15.0427 141.326 23.6594 146.924C27.0857 149.203 32.9891 154.008 37.2991 157.516C38.222 158.268 39.0729 158.96 39.8118 159.556C41.8773 161.224 44.4541 162 47.9215 162H63.1545C64.1341 162 65.0086 161.302 65.5532 160.084C66.6092 157.724 66.8323 151.992 60.9662 145.473C60.6954 145.174 60.4137 144.883 60.1256 144.599C63.4255 145.499 67.17 146.048 71.0676 146.048C74.0883 146.048 77.1975 145.721 80.2549 144.979C83.1408 144.268 85.8895 143.306 88.4837 142.123C91.3525 145.982 100.336 157.838 103.934 159.92C103.955 159.932 103.97 159.949 103.992 159.96C104.01 159.97 104.03 159.974 104.049 159.983C104.145 160.034 104.241 160.084 104.328 160.12C105.334 160.529 106.38 160.733 107.463 160.733C109.639 160.733 111.963 159.911 114.409 158.271C122.802 152.642 131 137.827 131 132.418C131 130.74 130.147 129.448 128.598 128.78ZM113.178 156.446C110.16 158.47 107.462 159.021 105.164 158.085C105.101 158.059 105.017 158 104.945 157.959C104.793 157.847 104.738 157.727 104.715 157.577C104.603 156.851 105.016 154.46 111.252 147.969C113.558 145.571 118.525 141.742 122.562 139.25C123.079 138.93 123.239 138.253 122.919 137.736C122.598 137.22 121.92 137.062 121.401 137.38C117.231 139.954 112.074 143.938 109.661 146.449C105.644 150.629 103.384 153.744 102.715 156.044C99.4247 152.698 94.1576 146.042 90.4924 141.131C98.542 136.962 104.907 130.551 108.802 122.623L111.834 132.268C110.185 133.158 108.768 134.106 107.797 135.016C107.353 135.431 107.332 136.127 107.749 136.57C108.167 137.011 108.863 137.033 109.308 136.618C113.186 132.982 123.926 129.163 127.722 130.797C128.475 131.122 128.796 131.606 128.796 132.418C128.796 136.766 121.407 150.929 113.178 156.446Z" fill="black"/>
<path d="M68.9865 23.9007C69.5447 23.0585 70.6794 21.9666 72.8352 21.887C75.6684 21.7728 79.2318 22.76 79.3859 22.8029C80.8386 23.1899 82.2317 23.8926 83.542 24.8211C83.5451 24.8205 83.5494 24.8212 83.5525 24.8206C84.4238 24.6358 85.8571 23.8978 85.6315 22.3266C85.4024 20.7305 85.0438 18.8995 84.811 17.6814C84.6393 16.7831 84.2598 14.7737 82.3762 14.9456C80.4926 15.1176 74.2717 15.7169 73.3608 15.8708C71.6695 16.1566 70.947 17.1669 70.947 17.1669C70.947 17.1669 70.1031 16.0645 67.5222 16.2616L58.8526 16.9239C58.1717 16.9759 57.5083 17.1287 56.8742 17.3816C53.4064 18.7642 41.5876 23.4481 40.7214 23.8749C39.5252 24.4643 36.3384 30.6863 39.5182 30.6863C41.1241 30.6863 41.7239 26.6412 42.6597 26.1959C43.2024 25.9378 44.6414 25.3913 45.2397 25.1586C45.4774 25.0661 45.7443 25.1728 45.8546 25.4022L47.6673 29.1707C47.9743 29.809 48.7088 30.1207 49.3829 29.8988L55.8164 28.0353C57.034 26.8995 58.4368 25.9711 60.0562 25.3559C64.6851 23.597 67.5743 23.6624 68.9865 23.9007Z" fill="black"/>
<path d="M69.6699 23.1848L68.9077 19.3203C68.9077 19.3203 68.8472 18.2524 67.7047 18.3496L58.8262 19.1048C58.8262 19.1048 57.7236 19.0776 57.9707 20.3643L58.7145 24.238C58.7145 24.238 58.7629 25.1954 60.3012 25.0487L69.8536 24.1373L69.6699 23.1848Z" fill="black"/>
<path d="M83.4427 21.917L82.7239 18.0457C82.5934 17.343 81.9394 16.8612 81.2275 16.9434L73.5364 17.8313C73.5364 17.8313 72.2795 17.9105 72.4916 18.9968L73.2257 22.7561C73.356 23.3957 74.3431 23.7748 74.9344 23.7748C74.9344 23.7748 81.7277 23.1252 82.5967 23.0387C83.6443 22.9345 83.4427 21.917 83.4427 21.917Z" fill="black"/>
<path fill-rule="evenodd" clip-rule="evenodd" d="M66.0408 18.1588C66.5053 18.4575 66.6398 19.0762 66.3412 19.5408L61.8412 26.5408C61.5425 27.0053 60.9238 27.1398 60.4592 26.8412C59.9947 26.5425 59.8602 25.9238 60.1588 25.4592L64.6588 18.4592C64.9575 17.9947 65.5762 17.8602 66.0408 18.1588Z" fill="white"/>
<path fill-rule="evenodd" clip-rule="evenodd" d="M80.0408 17.1588C80.5053 17.4575 80.6398 18.0762 80.3412 18.5408L75.8412 25.5408C75.5425 26.0053 74.9238 26.1398 74.4592 25.8412C73.9947 25.5425 73.8602 24.9238 74.1588 24.4592L78.6588 17.4592C78.9575 16.9947 79.5762 16.8602 80.0408 17.1588Z" fill="white"/>
<path d="M102.149 35.0629C97.6333 32.0603 91.772 30.5534 88.9554 29.8293C88.6635 29.7545 88.4278 29.693 88.2202 29.6373C86.8713 27.6958 85.2817 26.0537 83.5421 24.821C82.2318 23.8925 80.8388 23.1898 79.3861 22.8028C79.232 22.7599 75.6685 21.7727 72.8353 21.8869C70.6795 21.9664 69.5449 23.0584 68.9867 23.9006C67.5745 23.6623 64.6853 23.5971 60.0564 25.356C58.437 25.9712 57.0342 26.8996 55.8166 28.0354C52.6822 30.9593 50.815 35.3037 49.9385 39.5584C47.0289 41.5015 44.0339 44.173 42.3264 47.5787C42.0543 48.1213 42.275 48.7821 42.8196 49.0534C42.9777 49.1325 43.1459 49.1695 43.3113 49.1695C43.716 49.1695 44.1051 48.947 44.2984 48.5615C45.4654 46.234 47.394 44.2319 49.4703 42.6037C49.4581 42.7247 49.4407 42.8481 49.4301 42.9682C49.0842 46.5645 49.4701 49.3541 50.2337 51.536C49.0155 53.2497 47.9259 55.1548 47.1865 57.19C46.979 57.7605 47.2751 58.3909 47.8476 58.5978C47.9714 58.6427 48.0981 58.6637 48.2229 58.6637C48.6736 58.6637 49.0969 58.386 49.2593 57.9386C49.7688 56.5364 50.4894 55.1783 51.3159 53.8919C52.7735 56.3347 54.7403 57.6544 56.2352 58.3466C56.6369 58.5327 57.0584 58.6885 57.4865 58.832C63.2959 74.3613 64.7693 91.8494 65.8645 109.926C66.0529 112.112 67.6975 113.806 69.6911 113.866C69.7239 113.867 69.7572 113.868 69.7903 113.868C71.4193 113.868 73.4525 112.652 73.9678 109.185C76.6559 90.0383 76.5769 72.1323 75.8772 62.0461C75.9721 62.0151 76.0691 61.9928 76.1634 61.9592C76.5478 61.8223 76.9153 61.6607 77.2722 61.4849C81.783 74.8062 82.7332 84.1399 83.9125 95.8452C84.2638 99.3294 84.626 102.932 85.1084 106.953C85.357 109.245 86.9699 110.907 88.9439 110.907H88.9487C90.6555 110.904 92.6198 109.575 93.0131 105.852C95.798 79.8566 91.9254 57.348 90.8414 51.801C92.6193 49.8383 92.8183 47.4278 92.8183 44.7953C92.8534 43.1701 92.7035 41.5443 92.4208 39.9476C94.4592 41.207 97.366 43.2336 99.809 45.9982C100.026 46.2451 100.331 46.371 100.636 46.371C100.895 46.371 101.156 46.2807 101.365 46.0963C101.821 45.6952 101.865 45.0003 101.463 44.545C97.9041 40.5172 93.4967 37.9866 91.7202 36.9819C91.2358 35.3608 90.613 33.7965 89.8561 32.3387C92.8133 33.1336 97.3713 34.5284 100.926 36.8919C101.114 37.0168 101.326 37.0768 101.536 37.0768C101.893 37.0768 102.242 36.905 102.454 36.5874C102.792 36.0818 102.655 35.3996 102.149 35.0629ZM75.6971 59.7707C75.5368 57.9775 75.3579 56.536 75.1785 55.4933C75.9726 54.948 76.7429 54.3713 77.4502 53.7288C77.8676 54.027 78.3392 54.2495 78.7503 54.4086C79.207 54.5856 79.7502 54.737 80.3439 54.8549C79.4225 57.2644 77.8622 58.9121 75.6971 59.7707ZM90.6142 44.7718C90.6142 47.3128 90.4637 49.1787 88.8806 50.6536C88.5385 50.9581 88.1833 51.2203 87.8229 51.4485C87.4762 51.6621 87.0901 51.8677 86.6525 52.0651C86.3246 52.2132 85.9972 52.3247 85.6706 52.4292C85.4575 52.4948 85.2485 52.5525 85.0438 52.6011C84.9389 52.6267 84.8344 52.6502 84.7303 52.6719C84.4271 52.7341 84.1363 52.7815 83.8666 52.8141C83.7421 52.8284 83.6184 52.8422 83.4961 52.8515C83.3227 52.8664 83.158 52.8777 83.0081 52.8836C81.2474 52.9312 79.7592 52.5118 79.0041 52.112C80.3697 50.4159 82.9619 46.294 81.4553 40.7848C81.2953 40.1992 80.69 39.8513 80.1018 40.0138C79.5146 40.1734 79.1681 40.7775 79.3287 41.3636C80.9303 47.2209 76.8933 51.2091 76.7205 51.376C76.7176 51.3788 76.7168 51.3828 76.7138 51.3856C76.7087 51.3907 76.7021 51.3937 76.697 51.3989C75.717 52.399 74.595 53.2883 73.3853 54.0587L73.3828 54.0599C71.6571 55.1241 69.8591 55.9308 68.066 56.4956C67.7785 56.5835 67.4906 56.6693 67.2019 56.7446C67.0772 56.7781 66.9535 56.8048 66.829 56.8359C64.3884 57.4252 61.9424 57.5515 59.7724 57.1508C59.519 57.1021 59.2668 57.0513 59.0205 56.9879C58.3705 56.8249 57.744 56.6214 57.1634 56.3525C55.1552 55.4223 53.6751 53.9123 52.7306 51.8869C55.3792 48.4474 58.5359 45.7886 59.9825 44.7702C60.4802 44.4203 60.5986 43.7342 60.2472 43.2384C59.8968 42.7426 59.2074 42.6235 58.7112 42.9744C58.6565 43.0127 55.1761 45.499 51.8989 49.3962C51.4985 47.5933 51.4 45.5148 51.6256 43.1696C51.6918 42.4211 51.7914 41.654 51.9241 40.8803C54.4403 39.2928 56.8306 38.273 58.0407 37.935C58.6269 37.7715 58.9691 37.1645 58.8047 36.5799C58.6408 35.9953 58.035 35.6552 57.4458 35.8182C56.6382 36.0438 54.7845 36.7568 52.5997 37.9455C53.9178 33.3639 56.5215 29.0516 60.8413 27.4103C63.8859 26.2538 66.0429 25.9844 67.393 25.9844C68.5683 25.9844 69.1316 26.1889 69.1345 26.1898C69.1722 26.2059 69.2128 26.2201 69.2515 26.2318C69.2667 26.2362 70.7616 26.6929 71.8631 27.6221C72.1552 27.8685 72.4836 28.1838 72.8295 28.5151C74.3474 29.9683 75.9142 31.4698 77.4404 30.7818C78.7715 30.1787 78.6149 28.6093 78.4896 27.3479C78.424 26.6935 78.3433 25.8796 78.4989 25.5175C78.6917 25.0681 78.909 24.9871 79.0103 24.9758C81.9168 25.7879 84.5798 28.0494 86.6231 31.0971C86.6409 31.1324 86.6642 31.1622 86.6856 31.1955C88.0051 33.187 89.0609 35.5042 89.7434 37.9805C89.7504 38.0104 89.7601 38.0378 89.7697 38.0672C90.3565 40.2273 90.6631 42.5008 90.6142 44.7718Z" fill="black"/>
<path d="M82.6175 55.0941C81.7064 57.9205 80.1429 59.526 79.1985 60.2843C83.9387 74.1113 84.8978 83.6318 86.1055 95.6255C86.4559 99.099 86.818 102.691 87.2985 106.704C87.4404 108.011 88.2517 108.708 88.9436 108.708H88.9456C89.8861 108.707 90.6221 107.494 90.8207 105.619C93.4083 81.4667 90.1816 60.3668 88.8966 53.3789C86.4881 54.8702 84.0052 55.0921 82.6175 55.0941Z" fill="white"/>
<path d="M73.1459 56.7347C68.8079 59.0629 64.1299 60.0276 60.0665 59.4528C65.5608 74.9072 66.9911 92.0759 68.0632 109.766C68.1664 110.962 69.014 111.646 69.7583 111.669H69.7994C70.7693 111.669 71.5282 110.603 71.7856 108.871C75.0695 85.4764 74.1999 64.0535 73.1459 56.7347Z" fill="white"/>
</svg>
